<svg width="25.000000" height="25.000000" viewBox="0 0 25 25" fill="none" xmlns="http://www.w3.org/2000/svg" xmlns:xlink="http://www.w3.org/1999/xlink">
	<desc>
			Created with Pixso.
	</desc>
	<defs>
		<clipPath id="clip1_2303">
			<rect id="icons/Lock/Filled" width="25.000000" height="25.000000" fill="white" fill-opacity="0"/>
		</clipPath>
	</defs>
	<g clip-path="url(#clip1_2303)">
		<path id="Shape" d="M3.24072 13.78C3.40771 11.4712 5.22266 9.67871 7.53271 9.53186C8.91431 9.44406 10.6035 9.375 12.5 9.375C14.3965 9.375 16.0857 9.44406 17.4673 9.53186C19.7773 9.67871 21.5923 11.4712 21.7593 13.78C21.8267 14.7119 21.875 15.7135 21.875 16.6667C21.875 17.6198 21.8267 18.6215 21.7593 19.5533C21.5923 21.8621 19.7773 23.6546 17.4673 23.8015C16.0857 23.8893 14.3965 23.9583 12.5 23.9583C10.6035 23.9583 8.91431 23.8893 7.53271 23.8015C5.22266 23.6546 3.40771 21.8621 3.24072 19.5533C3.17334 18.6215 3.125 17.6198 3.125 16.6667C3.125 15.7135 3.17334 14.7119 3.24072 13.78ZM14.5833 15.625C14.5833 16.3961 14.1643 17.0694 13.5417 17.4296L13.5417 18.75C13.5417 19.3253 13.0752 19.7917 12.5 19.7917C11.9248 19.7917 11.4583 19.3253 11.4583 18.75L11.4583 17.4296C10.8357 17.0694 10.4167 16.3961 10.4167 15.625C10.4167 14.4744 11.3494 13.5417 12.5 13.5417C13.6506 13.5417 14.5833 14.4744 14.5833 15.625Z" fill="#FCFCFD" fill-opacity="1.000000" fill-rule="evenodd"/>
		<path id="Shape" d="M7.29175 6.25C7.29175 3.3735 9.62354 1.04166 12.5 1.04166C15.3765 1.04166 17.7085 3.3735 17.7085 6.25L17.7085 10.4167C17.7085 10.9919 17.2419 11.4583 16.6667 11.4583C16.0916 11.4583 15.625 10.9919 15.625 10.4167L15.625 6.25C15.625 4.52411 14.2261 3.125 12.5 3.125C10.7742 3.125 9.375 4.52411 9.375 6.25L9.375 10.4167C9.375 10.9919 8.90869 11.4583 8.3335 11.4583C7.75806 11.4583 7.29175 10.9919 7.29175 10.4167L7.29175 6.25Z" fill="#FCFCFD" fill-opacity="1.000000" fill-rule="evenodd"/>
	</g>
</svg>
