<svg width="15.000000" height="15.000000" viewBox="0 0 15 15" fill="none" xmlns="http://www.w3.org/2000/svg" xmlns:xlink="http://www.w3.org/1999/xlink">
	<desc>
			Created with Pixso.
	</desc>
	<defs>
		<clipPath id="clip1_988">
			<rect id="icons/Star/Filled" width="15.000000" height="15.000000" fill="white" fill-opacity="0"/>
		</clipPath>
	</defs>
	<g clip-path="url(#clip1_988)">
		<path id="Shape" d="M6.92615 1.95483C7.14331 1.45166 7.85669 1.45166 8.07385 1.95483L9.4364 5.11224C9.52832 5.32532 9.73071 5.46991 9.96204 5.48773L13.4563 5.75775C14.0168 5.80109 14.2396 6.50488 13.806 6.86285L11.1782 9.03241C10.9929 9.18542 10.9117 9.43121 10.9695 9.66449L11.7782 12.9323C11.9113 13.4696 11.3315 13.9018 10.8545 13.621L7.81714 11.8329C7.62146 11.7177 7.37866 11.7177 7.18298 11.8329L4.14563 13.621C3.66858 13.9018 3.08887 13.4696 3.2218 12.9323L4.03052 9.66449C4.08826 9.43121 4.00708 9.18542 3.82178 9.03241L1.19397 6.86285C0.760376 6.50488 0.983154 5.80109 1.54382 5.75775L5.03796 5.48773C5.26929 5.46991 5.47168 5.32532 5.5636 5.11224L6.92615 1.95483Z" fill="#353945" fill-opacity="1.000000" fill-rule="nonzero"/>
	</g>
</svg>
