<svg width="35.000000" height="35.000000" viewBox="0 0 35 35" fill="none" xmlns="http://www.w3.org/2000/svg" xmlns:xlink="http://www.w3.org/1999/xlink">
	<desc>
			Created with Pixso.
	</desc>
	<defs>
		<clipPath id="clip1_999">
			<rect id="icons/Megaphone/Filled" width="35.000000" height="35.000000" fill="white" fill-opacity="0"/>
		</clipPath>
	</defs>
	<g clip-path="url(#clip1_999)">
		<path id="Shape" d="M6.72266 23.3334C6.26257 23.3334 5.91724 23.7537 6.0072 24.205C6.2417 25.3813 6.6532 27.4514 6.85657 28.51C7.15076 30.0409 8.03479 30.625 9.25244 30.625C10.5859 30.625 11.6669 29.544 11.6669 28.2106L11.6669 24.0625C11.6669 23.6598 11.3405 23.3334 10.9377 23.3334L6.72266 23.3334Z" fill="#353945" fill-opacity="1.000000" fill-rule="nonzero"/>
		<path id="Shape" d="M14.5833 11.0812C14.5833 10.7847 14.7635 10.5192 15.0343 10.3982C15.5665 10.1605 16.0856 9.89026 16.5886 9.58847L23.291 5.56706C25.235 4.40065 27.7083 5.80098 27.7083 8.06808L27.7083 24.0153C27.7083 26.2824 25.235 27.6827 23.291 26.5163L16.5886 22.4949C16.0857 22.1931 15.5665 21.9229 15.0343 21.6852C14.7635 21.5642 14.5833 21.2987 14.5833 21.0022L14.5833 11.0812ZM1.45825 16.0417C1.45825 13.6254 3.41699 11.6667 5.83325 11.6667L6.95496 11.6667C8.35547 11.6667 9.1709 11.6667 10.9374 11.6667C11.3401 11.6667 11.6666 11.9931 11.6666 12.3959L11.6666 19.6875C11.6666 20.0902 11.3401 20.4167 10.9374 20.4167L5.83325 20.4167C3.41699 20.4167 1.45825 18.4579 1.45825 16.0417Z" fill="#353945" fill-opacity="1.000000" fill-rule="evenodd"/>
		<path id="Shape" d="M30.625 14.5833C30.625 13.7779 31.278 13.125 32.0834 13.125C32.8888 13.125 33.5416 13.7779 33.5416 14.5833L33.5416 17.5C33.5416 18.3054 32.8888 18.9583 32.0834 18.9583C31.278 18.9583 30.625 18.3054 30.625 17.5L30.625 14.5833Z" fill="#353945" fill-opacity="1.000000" fill-rule="nonzero"/>
	</g>
</svg>
