<svg width="25.000000" height="25.000000" viewBox="0 0 25 25" fill="none" xmlns="http://www.w3.org/2000/svg" xmlns:xlink="http://www.w3.org/1999/xlink">
	<desc>
			Created with Pixso.
	</desc>
	<defs>
		<clipPath id="clip1_2705">
			<rect id="icons/User/Filled" width="25.000000" height="25.000000" fill="white" fill-opacity="0"/>
		</clipPath>
	</defs>
	<g clip-path="url(#clip1_2705)">
		<path id="Shape" d="M19.6021 14.7133C18.96 13.9689 17.8572 14.0073 16.9946 14.4792C15.6602 15.2097 14.1287 15.625 12.5 15.625C10.8713 15.625 9.33984 15.2097 8.00537 14.4792C7.14282 14.0073 6.04004 13.9689 5.39795 14.7133C3.98145 16.3556 3.125 18.4944 3.125 20.8333L3.125 21.875C3.125 23.0256 4.05786 23.9583 5.20825 23.9583L19.7917 23.9583C20.9424 23.9583 21.875 23.0256 21.875 21.875L21.875 20.8333C21.875 18.4944 21.0186 16.3556 19.6021 14.7133Z" fill="#FCFCFD" fill-opacity="1.000000" fill-rule="evenodd"/>
		<path id="Shape" d="M17.7085 6.25C17.7085 9.12653 15.3765 11.4584 12.5 11.4584C9.62354 11.4584 7.29175 9.12653 7.29175 6.25C7.29175 3.37354 9.62354 1.04169 12.5 1.04169C15.3765 1.04169 17.7085 3.37354 17.7085 6.25Z" fill="#FCFCFD" fill-opacity="1.000000" fill-rule="nonzero"/>
	</g>
</svg>
