<svg width="25.000000" height="25.000000" viewBox="0 0 25 25" fill="none" xmlns="http://www.w3.org/2000/svg" xmlns:xlink="http://www.w3.org/1999/xlink">
	<desc>
			Created with Pixso.
	</desc>
	<defs>
		<clipPath id="clip1_2718">
			<rect id="telegram 1" width="25.000000" height="25.000000" fill="white" fill-opacity="0"/>
		</clipPath>
	</defs>
	<rect id="telegram 1" width="25.000000" height="25.000000" fill="#FFFFFF" fill-opacity="0"/>
	<g clip-path="url(#clip1_2718)">
		<path id="Vector" d="M25 12.5C25 19.4036 19.4036 25 12.5 25C5.59644 25 0 19.4036 0 12.5C0 5.59644 5.59644 0 12.5 0C19.4036 0 25 5.59644 25 12.5Z" fill="#039BE5" fill-opacity="1.000000" fill-rule="evenodd"/>
		<path id="Vector" d="M5.71973 12.2291L17.7717 7.58228C18.3311 7.38019 18.8196 7.71872 18.6384 8.56454L18.6394 8.56351L16.5874 18.2312C16.4353 18.9166 16.0281 19.0833 15.4583 18.7604L12.3333 16.4573L10.8259 17.9094C10.6592 18.076 10.5186 18.2166 10.1958 18.2166L10.4177 15.0364L16.2092 9.80414C16.4614 9.58228 16.1531 9.45728 15.8208 9.6781L8.66333 14.1844L5.57812 13.2218C4.9082 13.0093 4.89355 12.5521 5.71973 12.2291Z" fill="#FFFFFF" fill-opacity="1.000000" fill-rule="nonzero"/>
	</g>
</svg>
