<svg width="25.000000" height="25.000000" viewBox="0 0 25 25" fill="none" xmlns="http://www.w3.org/2000/svg" xmlns:xlink="http://www.w3.org/1999/xlink">
	<desc>
			Created with Pixso.
	</desc>
	<defs>
		<clipPath id="clip1_2722">
			<rect id="skype 1" width="25.000000" height="25.000000" fill="white" fill-opacity="0"/>
		</clipPath>
	</defs>
	<rect id="skype 1" width="25.000000" height="25.000000" fill="#FFFFFF" fill-opacity="0"/>
	<g clip-path="url(#clip1_2722)">
		<circle id="bg" cx="12.500000" cy="12.695312" r="7.958984" fill="#D9D9D9" fill-opacity="1.000000"/>
		<path id="Vector" d="M24.0176 14.5456C24.1362 13.8661 24.1953 13.1775 24.1946 12.4877C24.209 9.02252 22.6865 5.72931 20.0374 3.49567C17.3879 1.26202 13.885 0.317932 10.4722 0.917877C9.4231 0.313934 8.2334 -0.00265503 7.02295 3.05176e-05C4.53833 0.0151978 2.24829 1.3468 1.0061 3.4985C-0.236328 5.65021 -0.244385 8.29935 0.984863 10.4585C0.299072 14.2272 1.50049 18.093 4.20166 20.809C6.90283 23.525 10.762 24.7474 14.5344 24.0822C15.582 24.6855 16.7703 25.0022 17.9795 25C20.4626 24.984 22.7515 23.653 23.9934 21.5026C25.2354 19.3522 25.2446 16.7046 24.0176 14.5456ZM12.5486 20.0238C12.5491 20.0238 12.5498 20.0238 12.5505 20.0238L12.5464 20.0238C12.5471 20.0239 12.5479 20.0238 12.5486 20.0238C8.39697 20.0232 6.50024 17.908 6.50024 16.3566C6.49951 15.9865 6.65161 15.6324 6.92017 15.3777C7.18896 15.1231 7.55054 14.9904 7.92017 15.0107C9.69824 15.0107 9.23315 17.6779 12.5505 17.6779C14.2463 17.6779 15.2424 16.6571 15.2424 15.6981C15.2424 15.1219 14.9131 14.4633 13.7935 14.1999L10.0894 13.2656C7.11353 12.5083 6.59497 10.8537 6.59497 9.31848C6.59497 6.13272 9.50903 4.98029 12.283 4.98029C14.8391 4.98029 17.8765 6.39206 17.8765 8.30182C17.8765 9.12503 17.1892 9.5654 16.3906 9.5654C14.8721 9.5654 15.1272 7.43338 12.0732 7.43338C10.5544 7.43338 9.75586 8.14542 9.75586 9.14142C9.75586 10.1375 10.9373 10.475 11.9744 10.7013L14.7073 11.3187C17.7036 11.9937 18.5022 13.7513 18.5022 15.4346C18.5022 18.0231 16.4983 20.0232 12.5486 20.0238Z" fill="#0079DA" fill-opacity="1.000000" fill-rule="nonzero"/>
	</g>
</svg>
