<svg width="24.000000" height="24.000000" viewBox="0 0 24 24" fill="none" xmlns="http://www.w3.org/2000/svg" xmlns:xlink="http://www.w3.org/1999/xlink">
	<desc>
			Created with Pixso.
	</desc>
	<defs>
		<clipPath id="clip9_287">
			<rect id="icons/Eye/Line" width="24.000000" height="24.000000" fill="white" fill-opacity="0"/>
		</clipPath>
	</defs>
	<g clip-path="url(#clip9_287)">
		<path id="Shape" d="M12 18C16.1255 18 19.0593 15.4076 20.7773 13.2487C21.3733 12.4998 21.3733 11.5002 20.7773 10.7513C19.0593 8.59238 16.1255 6 12 6C7.87451 6 4.94092 8.59238 3.2229 10.7513C2.62695 11.5002 2.62695 12.4998 3.2229 13.2487C4.94092 15.4076 7.87451 18 12 18ZM22.3423 14.494C23.5183 13.0163 23.5183 10.9837 22.3423 9.50601C20.4741 7.15826 17.0266 4 12 4C6.97363 4 3.52612 7.15826 1.65796 9.50601C0.481934 10.9837 0.481934 13.0163 1.65796 14.494C3.52612 16.8417 6.97363 20 12 20C17.0266 20 20.4741 16.8417 22.3423 14.494Z" fill="#777E91" fill-opacity="1.000000" fill-rule="evenodd"/>
		<path id="Shape" d="M14 12C14 13.1046 13.1045 14 12 14C10.8955 14 10 13.1046 10 12C10 11.9716 10.0005 11.9434 10.0017 11.9153C10.1577 11.9702 10.3254 12 10.5 12C11.3284 12 12 11.3284 12 10.5C12 10.3253 11.9702 10.1577 11.9153 10.0018C11.9434 10.0006 11.9717 10 12 10C13.1045 10 14 10.8954 14 12ZM16 12C16 14.2091 14.2092 16 12 16C9.79077 16 8 14.2091 8 12C8 9.79086 9.79077 8 12 8C14.2092 8 16 9.79086 16 12Z" fill="#777E91" fill-opacity="1.000000" fill-rule="evenodd"/>
	</g>
</svg>
