<svg width="32.083252" height="26.250000" viewBox="0 0 32.0833 26.25" fill="none" xmlns="http://www.w3.org/2000/svg" xmlns:xlink="http://www.w3.org/1999/xlink">
	<desc>
			Created with Pixso.
	</desc>
	<defs/>
	<path id="Shape" d="M0 4.375C0 1.95876 1.95874 0 4.375 0L27.7083 0C30.1245 0 32.0833 1.95876 32.0833 4.375L32.0833 21.875C32.0833 24.2912 30.1245 26.25 27.7083 26.25L4.375 26.25C1.95874 26.25 0 24.2912 0 21.875L0 4.375ZM5.83325 17.5C5.83325 16.6946 6.48633 16.0417 7.29175 16.0417C8.09717 16.0417 8.75 16.6946 8.75 17.5L8.75 20.4167C8.75 21.2221 8.09717 21.875 7.29175 21.875C6.48633 21.875 5.83325 21.2221 5.83325 20.4167L5.83325 17.5ZM13.125 7.29167C12.3196 7.29167 11.6667 7.94458 11.6667 8.75L11.6667 20.4167C11.6667 21.2221 12.3196 21.875 13.125 21.875C13.9304 21.875 14.5833 21.2221 14.5833 20.4167L14.5833 8.75C14.5833 7.94458 13.9304 7.29167 13.125 7.29167ZM17.5 11.6667C17.5 10.8613 18.1528 10.2083 18.9583 10.2083C19.7637 10.2083 20.4167 10.8613 20.4167 11.6667L20.4167 20.4167C20.4167 21.2221 19.7637 21.875 18.9583 21.875C18.1528 21.875 17.5 21.2221 17.5 20.4167L17.5 11.6667ZM24.7917 4.375C23.9863 4.375 23.3333 5.02792 23.3333 5.83333L23.3333 20.4167C23.3333 21.2221 23.9863 21.875 24.7917 21.875C25.5972 21.875 26.25 21.2221 26.25 20.4167L26.25 5.83333C26.25 5.02792 25.5972 4.375 24.7917 4.375Z" fill="#353945" fill-opacity="1.000000" fill-rule="evenodd"/>
</svg>
