<svg width="223" height="45" viewBox="0 0 223 45" fill="none" xmlns="http://www.w3.org/2000/svg">
<g clip-path="url(#clip0_1_1962)">
<path d="M42.9434 0.563416C51.8403 0.563416 61.4725 5.41191 63.129 16.8838H52.3305C50.7979 12.5283 47.544 10.5647 42.9434 10.5647C36.5003 10.5647 32.2688 15.4103 32.2688 22.5295C32.2688 28.8486 36.4412 34.3705 42.9434 34.4324C47.6059 34.4324 51.3501 32.0998 52.5136 27.4992H63.3121C61.7176 39.6472 52.0854 44.4337 42.9434 44.4337C32.0209 44.4957 20.9773 37.1314 20.9153 22.5295C20.9773 7.92772 32.0209 0.563416 42.9434 0.563416Z" fill="#FFC737"/>
<path d="M83.3767 8.46023C83.3767 13.3651 79.9791 16.5993 74.9813 16.5993H71.0061V22.7831H65.1406V0.352173H74.9785C80.0749 0.352173 83.3739 3.5892 83.3739 8.46023H83.3767ZM77.4154 8.46023C77.4154 6.53605 76.2941 5.44859 74.4038 5.44859H71.0061V11.5367H74.4038C76.2941 11.5367 77.4154 10.3844 77.4154 8.46023Z" fill="#FFC737"/>
<path d="M104.593 22.4648V22.7859H98.28L96.9982 19.9349H88.538L87.2871 22.7859H80.9736V22.4648L91.5186 0.129578H94.0823L104.593 22.4676V22.4648ZM90.6847 14.8695H94.8176L92.7976 9.38989L90.6819 14.8695H90.6847Z" fill="#FFC737"/>
<path d="M124.43 22.6254V22.786H117.86L114.079 15.864H110.938V22.786H105.072V0.352173H114.623C119.654 0.352173 123.179 3.5244 123.179 8.26866C123.179 10.9929 121.801 13.3003 119.525 14.6131L124.427 22.6254H124.43ZM110.938 10.8972H114.336C116.161 10.8972 117.251 9.87167 117.251 8.14188C117.251 6.41209 116.161 5.4176 114.336 5.4176H110.938V10.8972Z" fill="#FFC737"/>
<path d="M140.837 5.60917H135.423V22.786H129.557V5.60917H124.142V0.352173H140.84V5.60917H140.837Z" fill="#FFC737"/>
<path d="M161.572 0.352134V22.8507H159.2L147.886 11.4099L147.951 15.447V22.7859H142.181V0.256348H144.553L155.898 11.3451L155.803 7.36991V0.352134H161.572Z" fill="#FFC737"/>
<path d="M179.068 17.529V22.786H164.776V0.352173H178.78V5.57536H170.607V8.90817H178.138V14.0356H170.607V17.529H179.068Z" fill="#FFC737"/>
<path d="M200.859 22.6254V22.786H194.289L190.508 15.864H187.367V22.786H181.502V0.352173H191.052C196.084 0.352173 199.608 3.5244 199.608 8.26866C199.608 10.9929 198.231 13.3003 195.954 14.6131L200.856 22.6254H200.859ZM187.367 10.8972H190.765C192.59 10.8972 193.681 9.87167 193.681 8.14188C193.681 6.41209 192.59 5.4176 190.765 5.4176H187.367V10.8972Z" fill="#FFC737"/>
<path d="M201.211 15.5738H206.947C206.947 17.112 208.164 18.0107 210.41 18.0107C212.491 18.0107 213.711 17.2726 213.711 16.0245C213.711 14.7765 212.334 14.3257 209.705 14.0384C203.583 13.365 201.437 10.6098 201.437 6.82901C201.437 2.79189 204.995 0.00280762 210.218 0.00280762C215.441 0.00280762 218.999 2.94966 218.999 7.34175H213.359C213.359 5.93031 212.207 5.09922 210.283 5.09922C208.359 5.09922 207.271 5.83734 207.271 7.0234C207.271 8.14467 208.105 8.72221 210.7 8.97858C217.205 9.62091 219.642 12.1846 219.642 16.1879C219.642 20.1912 215.923 23.1409 210.477 23.1409C204.676 23.1409 201.214 20.3208 201.214 15.5766L201.211 15.5738Z" fill="#FFC737"/>
<path d="M16.5993 27.4401C17.6473 27.4992 18.6474 27.5865 19.5659 27.7246C19.2616 26.0934 19.0898 24.3692 19.0841 22.5437C19.0898 21.1745 19.1912 19.8645 19.363 18.6051C18.994 18.5629 18.6249 18.5206 18.2558 18.4812C14.3906 18.053 11.1986 17.3768 11.4465 14.1257C11.7226 10.2886 18.3347 9.06592 21.583 11.1338C23.1241 7.94184 25.2905 5.30207 27.8627 3.23702C18.3488 -2.90459 0.746609 0.760655 1.01425 14.2469C1.13539 23.572 7.27137 26.7639 16.5993 27.4372V27.4401Z" fill="#FFC737"/>
<path d="M21.8084 34.4127C17.8952 35.9228 11.0155 34.7818 11.0155 30.8743H0.400094C0.222607 44.5182 18.4023 48.1497 28.5247 42.3264C25.7948 40.298 23.4678 37.6582 21.8084 34.4127Z" fill="#FFC737"/>
<path d="M65.5322 27.9669L65.4843 28.3247C64.4025 36.5623 59.9512 41.6587 54.5815 44.4478H222.6V27.9641H65.5322V27.9669ZM114.395 39.8388L111.546 38.3428L108.698 39.8388L109.242 36.6665L106.937 34.4212L110.121 33.9592L111.544 31.0743L112.966 33.9592L116.15 34.4212L113.845 36.6665L114.389 39.8388H114.395ZM130.064 39.8388L127.216 38.3428L124.368 39.8388L124.911 36.6665L122.607 34.4212L125.79 33.9592L127.213 31.0743L128.636 33.9592L131.819 34.4212L129.515 36.6665L130.059 39.8388H130.064ZM145.734 39.8388L142.886 38.3428L140.037 39.8388L140.581 36.6665L138.277 34.4212L141.46 33.9592L142.883 31.0743L144.305 33.9592L147.489 34.4212L145.184 36.6665L145.728 39.8388H145.734ZM161.403 39.8388L158.555 38.3428L155.707 39.8388L156.251 36.6665L153.946 34.4212L157.13 33.9592L158.552 31.0743L159.975 33.9592L163.159 34.4212L160.854 36.6665L161.398 39.8388H161.403ZM177.073 39.8388L174.225 38.3428L171.376 39.8388L171.92 36.6665L169.616 34.4212L172.799 33.9592L174.222 31.0743L175.645 33.9592L178.828 34.4212L176.524 36.6665L177.067 39.8388H177.073Z" fill="#FFC737"/>
</g>
<defs>
<clipPath id="clip0_1_1962">
<rect width="222.2" height="45" fill="white" transform="translate(0.400146)"/>
</clipPath>
</defs>
</svg>
